<?xml version="1.0" encoding="UTF-8" standalone="no"?>
<!-- Created with Inkscape (http://www.inkscape.org/) -->

<svg
   xmlns:dc="http://purl.org/dc/elements/1.1/"
   xmlns:cc="http://creativecommons.org/ns#"
   xmlns:rdf="http://www.w3.org/1999/02/22-rdf-syntax-ns#"
   xmlns:svg="http://www.w3.org/2000/svg"
   xmlns="http://www.w3.org/2000/svg"
   xmlns:sodipodi="http://sodipodi.sourceforge.net/DTD/sodipodi-0.dtd"
   xmlns:inkscape="http://www.inkscape.org/namespaces/inkscape"
   width="128"
   height="128"
   viewBox="0 0 33.866666 33.866668"
   version="1.1"
   id="svg8"
   inkscape:version="0.92.5 (2060ec1f9f, 2020-04-08)"
   sodipodi:docname="advancesearch.svg">
  <defs
     id="defs2" />
  <sodipodi:namedview
     id="base"
     pagecolor="#ffffff"
     bordercolor="#666666"
     borderopacity="1.0"
     inkscape:pageopacity="0.0"
     inkscape:pageshadow="2"
     inkscape:zoom="2.8"
     inkscape:cx="74.072494"
     inkscape:cy="69.629833"
     inkscape:document-units="mm"
     inkscape:current-layer="layer1"
     showgrid="true"
     units="px"
     inkscape:snap-global="true"
     showguides="false"
     inkscape:window-width="1920"
     inkscape:window-height="1011"
     inkscape:window-x="1920"
     inkscape:window-y="1080"
     inkscape:window-maximized="1">
    <inkscape:grid
       type="xygrid"
       id="grid836" />
  </sodipodi:namedview>
  <metadata
     id="metadata5">
    <rdf:RDF>
      <cc:Work
         rdf:about="">
        <dc:format>image/svg+xml</dc:format>
        <dc:type
           rdf:resource="http://purl.org/dc/dcmitype/StillImage" />
        <dc:title></dc:title>
      </cc:Work>
    </rdf:RDF>
  </metadata>
  <g
     inkscape:label="Calque 1"
     inkscape:groupmode="layer"
     id="layer1"
     transform="translate(0,-263.13332)">
    <path
       style="fill:#315b7c;fill-opacity:1;stroke:none;stroke-width:0.28863648;stroke-opacity:1"
       d="m 12.868376,265.24998 a 11.545459,11.545459 0 0 0 -11.5454591,11.54547 11.545459,11.545459 0 0 0 11.5454591,11.54545 11.545459,11.545459 0 0 0 6.489248,-1.99847 l 7.131916,7.13192 c 0.848022,0.84802 2.213665,0.84802 3.061688,0 0.848023,-0.84803 0.848023,-2.2131 0,-3.06112 l -7.139808,-7.13925 a 11.545459,11.545459 0 0 0 2.002416,-6.47853 11.545459,11.545459 0 0 0 -11.54546,-11.54547 z m 0,1.44319 A 10.102277,10.102277 0 0 1 22.970654,276.79545 10.102277,10.102277 0 0 1 12.868376,286.89772 10.102277,10.102277 0 0 1 2.7660994,276.79545 10.102277,10.102277 0 0 1 12.868376,266.69317 Z"
       id="path4545"
       inkscape:connector-curvature="0" />
    <path
       style="fill:#315b7c;fill-opacity:1;stroke:none;stroke-width:0.23901367;stroke-opacity:1"
       d="m 18.364872,271.29894 c -1.83219,1.8322 -3.664304,3.6643 -5.496496,5.49651 -2.243973,-1.29557 -4.4876799,-2.59146 -6.7316563,-3.88701 -0.192427,0.33328 -0.3848402,0.66678 -0.5772729,1.00008 2.4996645,1.44317 4.9992442,2.88637 7.4989112,4.32955 2.040965,-2.04097 4.081849,-4.08185 6.122814,-6.12282 -0.27213,-0.27213 -0.544169,-0.54418 -0.8163,-0.81631 z"
       id="path4633"
       inkscape:connector-curvature="0" />
    <rect
       style="fill:#f16522;fill-opacity:1;stroke:none;stroke-width:0.28863648;stroke-opacity:1"
       id="rect4673"
       width="8.6590948"
       height="1.4431825"
       x="24.413837"
       y="271.02274"
       ry="0.72159123" />
    <rect
       style="fill:#f16522;fill-opacity:1;stroke:none;stroke-width:0.28863648;stroke-opacity:1"
       id="rect4675"
       width="4.3295474"
       height="1.4431825"
       x="25.857018"
       y="275.35226"
       ry="0.72159123" />
    <rect
       style="fill:#f16522;fill-opacity:1;stroke:none;stroke-width:0.28863648;stroke-opacity:1"
       id="rect4677"
       width="7.2159119"
       height="1.4431825"
       x="24.413837"
       y="279.68182"
       ry="0.72159123" />
  </g>
</svg>
